<svg width="0" height="0" class="hidden">
  <symbol viewBox="0 0 22 12" fill="none" xmlns="http://www.w3.org/2000/svg" id="Vector">
    <path d="M21.557 9.953l-9.175-9.3-.014-.013c-1.16-1.176-2.21-.43-2.555-.12L.389 9.82s-.725.676-.196 1.211l.065.066s.433.502 1.193-.25l8.745-8.626.047-.047c.184-.171.88-.719 1.636.046l8.64 8.758s.698.72 1.181.244l.193-.19c.37-.395-.336-1.078-.336-1.078z"
      fill="#fff"></path>
  </symbol>
  <symbol viewBox="0 0 16 19" fill="none" xmlns="http://www.w3.org/2000/svg" id="Vector">
    <path d="M8.42.517C7.978.075 7.586.392 7.484.49L.782 7.193H.78c-.88.88 0 .934 0 .934h.084c.133.005.656.073.656.878v8.108c.016.432.18 1.584 1.444 1.584h9.712c1.43 0 1.493-1.496 1.495-1.724V9.091c0-1.008.826-.964.826-.964h.176c.127-.001.805-.044-.02-.871L8.42.516z"
      fill="#fff"></path>
  </symbol>
</svg>